<?xml version="1.0" standalone="no"?>
<!DOCTYPE svg PUBLIC "-//W3C//DTD SVG 20010904//EN"
 "http://www.w3.org/TR/2001/REC-SVG-20010904/DTD/svg10.dtd">
<svg version="1.0" xmlns="http://www.w3.org/2000/svg"
 width="21.000000pt" height="21.000000pt" viewBox="0 0 21.000000 21.000000"
 preserveAspectRatio="xMidYMid meet">

<g transform="translate(0.000000,21.000000) scale(0.100000,-0.100000)"
fill="#000000" stroke="none">
<path d="M6 193 c-3 -4 13 -26 36 -50 l42 -43 -39 -40 c-26 -27 -36 -43 -29
-50 7 -7 23 3 49 30 l39 40 41 -40 c34 -34 44 -38 53 -27 9 11 3 22 -28 52
l-40 39 41 42 c54 55 33 72 -22 18 l-39 -38 -38 37 c-37 37 -52 43 -66 30z"/>
</g>
</svg>
